<svg width="182" height="82" viewBox="0 0 182 82" fill="none" xmlns="http://www.w3.org/2000/svg">
<path d="M78.7331 41.432C75.5411 41.432 73.0571 40.352 71.2811 38.192C69.5051 36.008 68.6171 32.804 68.6171 28.58C68.6171 24.356 69.5051 21.116 71.2811 18.86C73.0571 16.58 75.5411 15.44 78.7331 15.44C80.8451 15.44 82.6091 15.92 84.0251 16.88C85.4651 17.84 86.5811 19.196 87.3731 20.948L84.9251 22.424C84.4211 21.128 83.6531 20.096 82.6211 19.328C81.5891 18.536 80.2931 18.14 78.7331 18.14C77.6531 18.14 76.6811 18.344 75.8171 18.752C74.9771 19.16 74.2571 19.748 73.6571 20.516C73.0811 21.26 72.6371 22.16 72.3251 23.216C72.0131 24.248 71.8571 25.412 71.8571 26.708V30.452C71.8571 33.044 72.4571 35.072 73.6571 36.536C74.8571 38 76.5491 38.732 78.7331 38.732C80.3411 38.732 81.6851 38.324 82.7651 37.508C83.8451 36.668 84.6371 35.564 85.1411 34.196L87.5531 35.708C86.7611 37.484 85.6211 38.888 84.1331 39.92C82.6451 40.928 80.8451 41.432 78.7331 41.432ZM92.0384 14.36H94.9184V25.448H95.0624C95.5184 24.392 96.1544 23.552 96.9704 22.928C97.8104 22.304 98.9264 21.992 100.318 21.992C102.238 21.992 103.75 22.616 104.854 23.864C105.982 25.088 106.546 26.828 106.546 29.084V41H103.666V29.588C103.666 26.252 102.262 24.584 99.4544 24.584C98.8784 24.584 98.3144 24.656 97.7624 24.8C97.2344 24.944 96.7544 25.16 96.3224 25.448C95.8904 25.736 95.5424 26.108 95.2784 26.564C95.0384 26.996 94.9184 27.512 94.9184 28.112V41H92.0384V14.36ZM126.089 41C125.009 41 124.229 40.712 123.749 40.136C123.293 39.56 123.005 38.84 122.885 37.976H122.705C122.297 39.128 121.625 39.992 120.689 40.568C119.753 41.144 118.637 41.432 117.341 41.432C115.373 41.432 113.837 40.928 112.733 39.92C111.653 38.912 111.113 37.544 111.113 35.816C111.113 34.064 111.749 32.72 113.021 31.784C114.317 30.848 116.321 30.38 119.033 30.38H122.705V28.544C122.705 27.224 122.345 26.216 121.625 25.52C120.905 24.824 119.801 24.476 118.313 24.476C117.185 24.476 116.237 24.728 115.469 25.232C114.725 25.736 114.101 26.408 113.597 27.248L111.869 25.628C112.373 24.62 113.177 23.768 114.281 23.072C115.385 22.352 116.777 21.992 118.457 21.992C120.713 21.992 122.465 22.544 123.713 23.648C124.961 24.752 125.585 26.288 125.585 28.256V38.48H127.709V41H126.089ZM117.809 38.984C118.529 38.984 119.189 38.9 119.789 38.732C120.389 38.564 120.905 38.324 121.337 38.012C121.769 37.7 122.105 37.34 122.345 36.932C122.585 36.524 122.705 36.08 122.705 35.6V32.54H118.889C117.233 32.54 116.021 32.78 115.253 33.26C114.509 33.74 114.137 34.436 114.137 35.348V36.104C114.137 37.016 114.461 37.724 115.109 38.228C115.781 38.732 116.681 38.984 117.809 38.984ZM136.014 41C135.006 41 134.238 40.724 133.71 40.172C133.206 39.596 132.954 38.852 132.954 37.94V24.944H129.894V22.424H131.622C132.246 22.424 132.666 22.304 132.882 22.064C133.122 21.8 133.242 21.356 133.242 20.732V17.276H135.834V22.424H139.902V24.944H135.834V38.48H139.614V41H136.014Z" fill="#444343"/>
<path d="M115.983 69.215H109.29V76H106.254V59.946H109.29V66.524H115.983V59.946H119.019V76H115.983V69.215ZM131.491 76C130.847 76 130.333 75.816 129.95 75.448C129.582 75.0647 129.352 74.5587 129.26 73.93H129.122C128.922 74.712 128.516 75.3023 127.903 75.701C127.289 76.0843 126.53 76.276 125.626 76.276C124.399 76.276 123.456 75.954 122.797 75.31C122.137 74.666 121.808 73.8073 121.808 72.734C121.808 71.492 122.252 70.572 123.142 69.974C124.031 69.3607 125.296 69.054 126.937 69.054H128.984V68.18C128.984 67.5053 128.807 66.984 128.455 66.616C128.102 66.248 127.535 66.064 126.753 66.064C126.063 66.064 125.503 66.2173 125.074 66.524C124.66 66.8153 124.307 67.168 124.016 67.582L122.268 66.018C122.712 65.328 123.303 64.776 124.039 64.362C124.775 63.9327 125.748 63.718 126.96 63.718C128.585 63.718 129.819 64.086 130.663 64.822C131.506 65.558 131.928 66.616 131.928 67.996V73.654H133.124V76H131.491ZM126.615 74.137C127.274 74.137 127.834 73.9913 128.294 73.7C128.754 73.4087 128.984 72.9793 128.984 72.412V70.825H127.098C125.564 70.825 124.798 71.3157 124.798 72.297V72.688C124.798 73.1787 124.951 73.5467 125.258 73.792C125.58 74.022 126.032 74.137 126.615 74.137ZM135.564 58.98H138.508V65.972H138.6C138.815 65.282 139.221 64.7377 139.819 64.339C140.417 63.925 141.115 63.718 141.912 63.718C143.445 63.718 144.611 64.2623 145.408 65.351C146.221 66.4243 146.627 67.9653 146.627 69.974C146.627 71.998 146.221 73.5543 145.408 74.643C144.611 75.7317 143.445 76.276 141.912 76.276C141.115 76.276 140.417 76.069 139.819 75.655C139.236 75.241 138.83 74.689 138.6 73.999H138.508V76H135.564V58.98ZM140.969 73.838C141.736 73.838 142.357 73.585 142.832 73.079C143.307 72.573 143.545 71.8907 143.545 71.032V68.962C143.545 68.1033 143.307 67.421 142.832 66.915C142.357 66.3937 141.736 66.133 140.969 66.133C140.264 66.133 139.673 66.3093 139.198 66.662C138.738 67.0147 138.508 67.4823 138.508 68.065V71.883C138.508 72.5117 138.738 72.9947 139.198 73.332C139.673 73.6693 140.264 73.838 140.969 73.838ZM150.884 62.246C150.271 62.246 149.826 62.108 149.55 61.832C149.29 61.556 149.159 61.2033 149.159 60.774V60.314C149.159 59.8847 149.29 59.532 149.55 59.256C149.826 58.98 150.271 58.842 150.884 58.842C151.482 58.842 151.919 58.98 152.195 59.256C152.471 59.532 152.609 59.8847 152.609 60.314V60.774C152.609 61.2033 152.471 61.556 152.195 61.832C151.919 62.108 151.482 62.246 150.884 62.246ZM149.412 63.994H152.356V76H149.412V63.994ZM159.575 76C158.563 76 157.789 75.7393 157.252 75.218C156.731 74.6813 156.47 73.9223 156.47 72.941V66.34H154.699V63.994H155.619C156.064 63.994 156.363 63.8943 156.516 63.695C156.685 63.4803 156.769 63.166 156.769 62.752V60.705H159.414V63.994H161.875V66.34H159.414V73.654H161.691V76H159.575ZM173.318 76C172.674 76 172.161 75.816 171.777 75.448C171.409 75.0647 171.179 74.5587 171.087 73.93H170.949C170.75 74.712 170.344 75.3023 169.73 75.701C169.117 76.0843 168.358 76.276 167.453 76.276C166.227 76.276 165.284 75.954 164.624 75.31C163.965 74.666 163.635 73.8073 163.635 72.734C163.635 71.492 164.08 70.572 164.969 69.974C165.859 69.3607 167.124 69.054 168.764 69.054H170.811V68.18C170.811 67.5053 170.635 66.984 170.282 66.616C169.93 66.248 169.362 66.064 168.58 66.064C167.89 66.064 167.331 66.2173 166.901 66.524C166.487 66.8153 166.135 67.168 165.843 67.582L164.095 66.018C164.54 65.328 165.13 64.776 165.866 64.362C166.602 63.9327 167.576 63.718 168.787 63.718C170.413 63.718 171.647 64.086 172.49 64.822C173.334 65.558 173.755 66.616 173.755 67.996V73.654H174.951V76H173.318ZM168.442 74.137C169.102 74.137 169.661 73.9913 170.121 73.7C170.581 73.4087 170.811 72.9793 170.811 72.412V70.825H168.925C167.392 70.825 166.625 71.3157 166.625 72.297V72.688C166.625 73.1787 166.779 73.5467 167.085 73.792C167.407 74.022 167.86 74.137 168.442 74.137Z" fill="#3166D8"/>
<path d="M30 5.625C22.8955 5.625 16.4355 7.7124 11.6602 11.2061C6.87744 14.6924 3.75 19.7021 3.75 25.3125C3.75 32.1167 8.38623 37.8735 15 41.3452V54.375L27.6489 44.8828C28.418 44.9414 29.1943 45 30 45C37.1045 45 43.5645 42.9126 48.3398 39.4263C53.1226 35.9326 56.25 30.9229 56.25 25.3125C56.25 19.7021 53.1226 14.6924 48.3398 11.2061C43.5645 7.7124 37.1045 5.625 30 5.625ZM30 9.375C36.3574 9.375 42.085 11.2793 46.1279 14.231C50.1709 17.1826 52.5 21.0864 52.5 25.3125C52.5 29.5386 50.1709 33.4424 46.1279 36.394C42.085 39.3457 36.3574 41.25 30 41.25C29.0771 41.25 28.1543 41.1987 27.2314 41.1108L26.5137 41.0522L18.75 46.875V39.1113L17.666 38.6133C11.3818 35.6616 7.5 30.7251 7.5 25.3125C7.5 21.0864 9.8291 17.1826 13.8721 14.231C17.915 11.2793 23.6426 9.375 30 9.375Z" fill="#FA810F"/>
</svg>
